<?xml version="1.0" encoding="iso-8859-1"?>
<!-- Generator: Adobe Illustrator 19.0.0, SVG Export Plug-In . SVG Version: 6.00 Build 0)  -->
<svg xmlns="http://www.w3.org/2000/svg" id="Outline" viewBox="0 0 512 512">
<g id="XMLID_2020_">
	<g id="XMLID_1998_">
		<g id="XMLID_1999_">
			<g id="XMLID_2000_">
				<path id="XMLID_2008_" d="M510.999,472.65l-18.2-73.409c-3.434-13.851-10.203-26.86-19.576-37.624l-45.828-52.622l2.641-14.666      l7.262,10.452c4.525,6.513,11.316,10.874,19.119,12.278c1.777,0.32,3.559,0.479,5.327,0.479c5.998,0,11.847-1.82,16.877-5.315      c6.514-4.524,10.874-11.315,12.28-19.121c1.405-7.805-0.313-15.69-4.838-22.203l-51.464-74.073      c-0.359-0.563-0.722-1.125-1.105-1.677c-0.028-0.041-0.06-0.08-0.088-0.12c14.074-5.394,25.186-17.649,28.367-33.486      l0.776-3.862c2.392-11.9,0.005-24.02-6.72-34.124c-6.725-10.105-16.981-16.987-28.882-19.378      c-11.904-2.393-24.021-0.005-34.124,6.72c-10.105,6.724-16.987,16.98-19.379,28.882l-0.774,3.86      c-2.313,11.507-0.146,23.214,6.081,33.112c-4.017,1.315-7.885,3.156-11.504,5.526c-0.241,0.139-0.477,0.288-0.708,0.449      l-100.266,69.663c-4.856,3.374-8.427,7.933-10.597,13.006L235.523,246.7c-1.944-1.803-4.51-2.77-7.176-2.662      c-2.65,0.1-5.153,1.247-6.957,3.191l-56.916,61.347c-3.756,4.049-3.52,10.376,0.529,14.133l60.682,56.3      c-3.53,3.639-6.201,8.093-7.724,13.071c-4.963,16.209,3.151,33.21,18.872,39.547l67.007,27.017      c5.784,2.332,11.774,3.436,17.683,3.436c18.712-0.002,36.571-11.078,44.18-29.302l22.994-55.074l34.774,32.354l26.743,80.229      c4.318,12.952,16.393,21.654,30.045,21.654c9.809,0,18.9-4.431,24.943-12.156C511.247,492.059,513.359,482.17,510.999,472.65z       M471.218,289.558c-0.459,2.547-1.882,4.763-4.007,6.239c-2.127,1.477-4.702,2.037-7.249,1.579s-4.763-1.882-6.24-4.007      l-18.673-26.875l4.858-26.977l29.732,42.794C471.115,284.436,471.676,287.01,471.218,289.558z M392.279,147.579l0.774-3.86      c1.339-6.663,5.192-12.405,10.85-16.17c4.226-2.812,9.079-4.269,14.042-4.269c1.682,0,3.377,0.167,5.063,0.506      c6.663,1.339,12.406,5.192,16.171,10.85c3.765,5.658,5.101,12.443,3.763,19.104l-0.776,3.862      c-1.339,6.663-5.192,12.405-10.85,16.17s-12.44,5.104-19.105,3.763c-6.663-1.339-12.406-5.192-16.171-10.85      S390.939,154.243,392.279,147.579z M277.685,268.815l99.731-69.292c0.144-0.086,0.285-0.177,0.425-0.271      c6.176-4.18,13.613-5.757,20.94-4.435c7.465,1.344,13.959,5.515,18.287,11.744c4.327,6.229,5.971,13.77,4.626,21.234      l-13.356,74.168h-57.705l8.119-45.085c0.717-3.98-1.035-8.001-4.438-10.187c-3.401-2.184-7.786-2.107-11.109,0.202      l-54.876,38.127c-2.127,1.478-4.701,2.037-7.248,1.579c-2.592-0.467-4.833-1.926-6.311-4.108      C271.813,278.123,273.121,271.987,277.685,268.815z M299.74,301.446l35.051-24.353l-6.722,37.327l-21.349,73.454l-26.915-9.665      l38.284-41.264c3.756-4.049,3.519-10.376-0.529-14.133l-20.973-19.459C297.666,302.785,298.721,302.154,299.74,301.446z       M229.251,268.163l67.375,62.51l-43.313,46.686l-67.375-62.51L229.251,268.163z M372.545,364.482l-25.297,60.59      c-5.815,13.926-21.932,20.662-35.929,15.022l-67.008-27.017c-6.02-2.427-9.126-8.937-7.227-15.144      c0.627-2.05,1.772-3.859,3.28-5.307l6.675,6.193c1.853,1.719,4.283,2.669,6.802,2.669c0.124,0,0.249-0.002,0.374-0.007      c2.65-0.1,5.153-1.247,6.957-3.191l3.844-4.143l44.957,16.145c1.096,0.394,2.239,0.589,3.38,0.589      c1.563,0,3.122-0.366,4.543-1.092c2.458-1.253,4.289-3.468,5.06-6.117l19.935-68.589l30.28,28.172      C372.94,363.648,372.724,364.052,372.545,364.482z M489.451,487.462c-2.228,2.847-5.577,4.479-9.191,4.479      c-5.031,0-9.48-3.207-11.071-7.979l-27.55-82.649c-0.53-1.589-1.45-3.019-2.676-4.159l-80.814-75.189h54.019l45.973,52.788      c7.3,8.383,12.572,18.516,15.246,29.302l18.2,73.409C492.457,480.971,491.677,484.615,489.451,487.462z"/>
				<path id="XMLID_2006_" d="M187.328,230.434c-2.356-4.996-8.314-7.136-13.31-4.78c-41.096,19.378-90.303,10.799-122.445-21.346      C9.464,162.2,9.464,93.684,51.573,51.574s110.625-42.109,152.734,0c31.934,31.933,40.624,80.898,21.626,121.845      c-2.324,5.01-0.147,10.956,4.862,13.28c5.012,2.324,10.956,0.146,13.28-4.862c22.517-48.53,12.218-106.562-25.626-144.405      c-49.908-49.906-131.111-49.906-181.02,0c-49.907,49.907-49.907,131.112,0,181.02c24.511,24.511,57.393,37.459,90.702,37.458      c18.458,0,37.048-3.977,54.415-12.165C187.543,241.389,189.683,235.43,187.328,230.434z"/>
				<path id="XMLID_2005_" d="M211.765,118.037h-7.264c-5.522,0-10,4.478-10,10c0,5.522,4.478,10,10,10h7.264      c5.522,0,10-4.478,10-10C221.765,122.515,217.288,118.037,211.765,118.037z"/>
				<path id="XMLID_2004_" d="M44.115,117.846c-5.522,0-10,4.478-10,10c0,5.522,4.478,10,10,10h7.264c5.522,0,10-4.478,10-10      c0-5.522-4.478-10-10-10H44.115z"/>
				<path id="XMLID_2003_" d="M127.844,194.503c-5.522,0-10,4.478-10,10v7.264c0,5.522,4.478,10,10,10s10-4.478,10-10v-7.264      C137.844,198.98,133.367,194.503,127.844,194.503z"/>
				<path id="XMLID_2002_" d="M138.036,51.724c0.007-5.523-4.465-10.006-9.987-10.013c-0.005,0-0.009,0-0.013,0      c-5.518,0-9.993,4.469-10,9.987l-0.092,72.872l-26.732,35.218c-3.34,4.398-2.48,10.672,1.919,14.011      c1.808,1.372,3.932,2.036,6.038,2.036c3.021,0,6.006-1.363,7.973-3.955l28.764-37.893c1.318-1.735,2.032-3.854,2.035-6.033      L138.036,51.724z"/>
				<path id="XMLID_2001_" d="M211.38,201.381c-2.63,0-5.21,1.07-7.069,2.931c-1.86,1.859-2.931,4.439-2.931,7.069      s1.07,5.21,2.931,7.07c1.859,1.86,4.439,2.93,7.069,2.93s5.2-1.069,7.07-2.93c1.86-1.86,2.93-4.44,2.93-7.07      s-1.069-5.21-2.93-7.069C216.59,202.451,214.01,201.381,211.38,201.381z"/>
			</g>
		</g>
	</g>
</g>















</svg>
