<?xml version="1.0" encoding="iso-8859-1"?>
<!-- Generator: Adobe Illustrator 17.1.0, SVG Export Plug-In . SVG Version: 6.00 Build 0)  -->
<!DOCTYPE svg PUBLIC "-//W3C//DTD SVG 1.1//EN" "http://www.w3.org/Graphics/SVG/1.1/DTD/svg11.dtd">
<svg version="1.1" id="Layer_1" xmlns="http://www.w3.org/2000/svg" xmlns:xlink="http://www.w3.org/1999/xlink" x="0px" y="0px"
	 viewBox="0 0 32 32" style="enable-background:new 0 0 32 32;" xml:space="preserve">
<g>
	<path d="M25.887,17.2C25.134,15.946,23.463,15,22,15h-5.625c-1.443,0-3.141,0.901-3.948,2.098l-1.137,1.686
		C10.86,19.42,9.769,20,9,20H5c-1.654,0-3,1.346-3,3v2c0,1.654,1.346,3,3,3h1.184C6.598,29.161,7.698,30,9,30c1.654,0,3-1.346,3-3
		s-1.346-3-3-3c-1.302,0-2.402,0.839-2.816,2H5c-0.552,0-1-0.448-1-1v-2c0-0.552,0.448-1,1-1h4c1.443,0,3.141-0.901,3.948-2.098
		l1.137-1.686C14.515,17.58,15.606,17,16.375,17H22c0.75,0,1.785,0.586,2.172,1.229l0.941,1.57c0.036,0.06,0.071,0.132,0.107,0.2H15
		c-0.553,0-1,0.447-1,1s0.447,1,1,1h10.885C25.955,22.363,26,22.711,26,23v4c0,0.553,0.447,1,1,1s1-0.447,1-1v-4
		c0-1.277-0.515-3.135-1.172-4.229L25.887,17.2z M9,26c0.552,0,1,0.448,1,1s-0.448,1-1,1s-1-0.448-1-1S8.448,26,9,26z"/>
	<path d="M21,24c-1.654,0-3,1.346-3,3s1.346,3,3,3s3-1.346,3-3S22.654,24,21,24z M21,28c-0.552,0-1-0.448-1-1s0.448-1,1-1
		s1,0.448,1,1S21.552,28,21,28z"/>
	<path d="M26,6H13V5c0-1.654-1.346-3-3-3H6C4.346,2,3,3.346,3,5v13c0,0.553,0.447,1,1,1s1-0.447,1-1V5c0-0.552,0.448-1,1-1h4
		c0.552,0,1,0.448,1,1v9c0,0.553,0.447,1,1,1s1-0.447,1-1V8h13c0.552,0,1,0.448,1,1v6c0,0.553,0.447,1,1,1s1-0.447,1-1V9
		C29,7.346,27.654,6,26,6z"/>
	<path d="M8,11c0.553,0,1-0.447,1-1V8c0-0.553-0.447-1-1-1S7,7.447,7,8v2C7,10.553,7.447,11,8,11z"/>
	<path d="M18,12c0.553,0,1-0.447,1-1s-0.447-1-1-1h-2c-0.553,0-1,0.447-1,1s0.447,1,1,1H18z"/>
	<path d="M24,12c0.553,0,1-0.447,1-1s-0.447-1-1-1h-2c-0.553,0-1,0.447-1,1s0.447,1,1,1H24z"/>
	<path d="M7,16c0,0.553,0.447,1,1,1s1-0.447,1-1v-2c0-0.553-0.447-1-1-1s-1,0.447-1,1V16z"/>
</g>
</svg>
