<?xml version="1.0"?>
<svg xmlns="http://www.w3.org/2000/svg" viewBox="0 0 512 512" width="27" height="27"><g id="_05-cut" data-name="05-cut"><g id="linear_color" data-name="linear color"><path d="M314.1,354.374C384.931,330.154,436,262.931,436,184,436,84.748,355.252,4,256,4S76,84.748,76,184a179.589,179.589,0,0,0,64.216,137.809,12.085,12.085,0,0,0,14.9.434L244,255.925V352a12,12,0,0,0,12,12,180.8,180.8,0,0,0,25.912-1.872L255.718,407.5,210.111,328.5a12,12,0,0,0-20.785,12L241.861,431.5l-4.95,8.574a43.992,43.992,0,1,0-58.906,62.03c20.316,12.261,48.7,4.609,60.115-16.123l17.6-30.48L273.326,486c11.427,20.719,39.8,28.363,60.106,16.105A44,44,0,0,0,349.537,442h0a43.968,43.968,0,0,0-75.011-1.924l-4.951-8.575ZM152.9,216.206A106.627,106.627,0,0,1,148.665,196H168a12,12,0,0,0,0-24H148.67A108.2,108.2,0,0,1,244,76.67V96a12,12,0,0,0,24,0V76.67A108.2,108.2,0,0,1,363.33,172H344a12,12,0,0,0,0,24h19.33A108.2,108.2,0,0,1,268,291.33V232a12.088,12.088,0,0,0-12-12H153.443A11.971,11.971,0,0,0,152.9,216.206ZM139.453,244h80.4l-69.324,51.723C139.6,277.4,138.943,256.583,139.453,244ZM268,315.449C335.182,309.365,388,252.74,388,184c0-72.785-59.215-132-132-132S124,111.215,124,184a131.52,131.52,0,0,0,5.007,36c-9.466-.283-13.7,6.983-13.111,15.671-.246,3.563-.623,9.094-.533,15.863A154.469,154.469,0,0,1,100,184c0-86.019,69.981-156,156-156S412,97.981,412,184c0,81.981-63.566,149.4-144,155.543ZM205.182,483.313A20,20,0,0,1,182.686,454h0c5.193-9.417,18.089-12.891,27.32-7.32a20,20,0,0,1-4.824,36.639Zm96.25-36.639c9.231-5.572,22.127-2.1,27.32,7.32h0a19.862,19.862,0,0,1,2,15.176c-2.565,10.442-14.17,17.138-24.494,14.142A19.866,19.866,0,0,1,294.113,474l0,0,0,0A20.024,20.024,0,0,1,301.432,446.674Z"/><path d="M201.344,161.984l48,32a12,12,0,0,0,15.767-2.174l48-56a12,12,0,1,0-18.222-15.62l-41.08,47.927-39.153-26.1a12,12,0,0,0-13.312,19.968Z"/></g></g></svg>
