<svg height="27" viewBox="0 -30 512 512" width="27" xmlns="http://www.w3.org/2000/svg"><path d="m452 231.644531v-231.644531h-452v361.929688h280.214844c12.527344 51.441406 58.984375 89.746093 114.226562 89.746093 64.820313 0 117.558594-52.738281 117.558594-117.558593 0-43.925782-24.21875-82.292969-60-102.472657zm-57.558594-15.089843c-17.066406 0-33.292968 3.660156-47.941406 10.230468v-46.109375h75.5v39.152344c-8.84375-2.132813-18.070312-3.273437-27.558594-3.273437zm-364.441406-35.878907h75.5v60.625h-75.5zm392-30h-75.5v-60.628906h75.5zm-105.5 0h-75.5v-60.628906h75.5zm-75.5 90.625v-60.625h75.5v60.625zm-30-90.625h-75.5v-60.628906h75.5zm-105.5 0h-75.5v-60.628906h75.5zm30 30h75.5v60.625h-75.5zm75.5 90.625v60.628907h-75.5v-60.628907zm30 0h54.113281c-11.175781 17.609375-17.796875 38.371094-18.207031 60.628907h-35.90625zm181-241.300781v30.046875h-392v-30.046875zm-392 241.300781h75.5v60.628907h-75.5zm364.441406 150.375c-48.28125 0-87.5625-39.28125-87.5625-87.5625s39.28125-87.558593 87.5625-87.558593 87.558594 39.28125 87.558594 87.5625c0 48.277343-39.277344 87.558593-87.558594 87.558593zm0 0"/><path d="m409.441406 276.589844h-30v63.738281l45.070313 45.070313 21.210937-21.214844-36.28125-36.28125zm0 0"/></svg>