<svg height="26" viewBox="0 0 512 512" width="26" xmlns="http://www.w3.org/2000/svg"><g><path d="m436.799 74.89c-48.293-48.294-112.501-74.89-180.798-74.89-68.298 0-132.506 26.596-180.799 74.89s-74.889 112.501-74.889 180.797c0 38.707 8.317 75.605 24.689 109.714 2.5 10.056 7.559 19.172 14.588 26.536.721 1.157 1.427 2.267 2.125 3.345-11.678 12.666-18.565 29.487-18.565 47.198 0 38.332 31.186 69.519 69.519 69.519 19.332 0 37.284-8.002 50.115-21.341 10.98 12.794 27.247 20.731 45.083 20.731 7.678 0 15.095-1.46 21.945-4.172 15.01 2.821 29.824 4.157 46.188 4.157 68.297 0 132.505-26.596 180.798-74.89 48.293-48.293 74.89-112.502 74.89-180.799s-26.597-132.503-74.889-180.795zm-275.495 389.763c-.035-.081-.073-.16-.11-.241-1.01-2.176-1.77-4.503-2.227-6.951-1.249-6.687-6.847-11.693-13.631-12.19-6.794-.49-13.052 3.639-15.264 10.071-5.489 15.966-20.521 26.693-37.403 26.693-21.81 0-39.555-17.744-39.555-39.555 0-15.145 8.836-29.16 22.511-35.704 5.544-2.653 8.905-8.424 8.479-14.555-.427-6.132-4.556-11.38-10.415-13.239-4.454-1.413-8.366-3.808-11.556-6.891-.146-.152-.301-.292-.452-.436-5.326-5.372-8.496-12.73-8.496-20.711 0-16.219 13.194-29.413 29.414-29.413 3.615 0 7.152.654 10.516 1.944 1.027.394 2.094.673 3.181.833 58.28 8.58 103.506-7.398 127.545-19.272 6.304 33.497 15.093 104.067-8.641 158.419-8.342 13.923-22.74 17.972-27.334 17.972-11.564-.001-21.793-6.734-26.562-16.774zm254.307-49.355c-42.633 42.634-99.318 66.113-159.61 66.113-5.616 0-10.938-.178-16.125-.522.535-.753 1.028-1.542 1.422-2.399 13.162-28.629 18.311-60.612 19.342-90.486l17.899 26.095c2.746 4.231 7.47 6.826 12.574 6.826 5.158 0 9.923-2.65 12.654-6.96l22.514-32.824 22.826 33.276c2.905 4.233 7.595 6.509 12.369 6.509 2.921 0 5.871-.852 8.461-2.629 6.824-4.68 8.561-14.006 3.88-20.829l-35.18-51.289c-2.795-4.073-7.416-6.507-12.355-6.507s-9.561 2.435-12.354 6.507l-22.82 33.268-22.821-33.268c-2.182-3.182-5.483-5.358-9.178-6.16-3.245-34.73-9.963-59.936-10.561-62.127-1.297-4.757-4.852-8.571-9.507-10.199-4.653-1.629-9.812-.862-13.792 2.048-.489.358-49.446 35.419-123.1 25.137-6.291-2.196-12.859-3.309-19.552-3.309-18.089 0-34.304 8.14-45.204 20.939-4.733-18.297-7.119-37.291-7.119-56.818 0-60.293 23.479-116.977 66.113-159.611 42.635-42.636 99.32-66.115 159.613-66.115 60.292 0 116.977 23.479 159.61 66.112 42.634 42.634 66.112 99.318 66.112 159.611s-23.478 116.978-66.111 159.611z"/><path d="m380.01 157.395c-4.138-7.167-13.3-9.62-20.466-5.483l-67.634 39.048c-4.635 2.676-7.491 7.622-7.491 12.975s2.856 10.299 7.491 12.975l67.634 39.048c2.359 1.362 4.935 2.01 7.477 2.01 5.178 0 10.214-2.687 12.989-7.493 4.138-7.165 1.683-16.329-5.483-20.466l-45.161-26.074 45.161-26.074c7.166-4.137 9.621-13.3 5.483-20.466z"/><path d="m220.106 190.96-67.634-39.048c-7.166-4.138-16.33-1.683-20.466 5.483-4.137 7.165-1.682 16.329 5.483 20.466l45.161 26.074-45.161 26.074c-7.165 4.137-9.621 13.3-5.483 20.466 2.775 4.806 7.811 7.493 12.989 7.493 2.541 0 5.118-.647 7.477-2.01l67.634-39.048c4.635-2.676 7.491-7.622 7.491-12.975s-2.855-10.299-7.491-12.975z"/></g></svg>